<?xml version="1.0" encoding="UTF-8"?>
<svg id="Layer_1" xmlns="http://www.w3.org/2000/svg" version="1.1" viewBox="0 0 1920 461.9889994">
  <!-- Generator: Adobe Illustrator 30.4.0, SVG Export Plug-In . SVG Version: 2.1.4 Build 226)  -->
  <g>
    <path d="M1038.8651043,263.232109c0,14.8144961-10.4280811,22.7762533-25.0356708,22.7762533h-24.2577029v-78.6658021h21.7748264c12.6543936,0,25.1349859,6.1078761,25.1349859,20.6327033,0,11.3384691-8.996289,16.6104434-13.2751127,16.6104434,2.4414952,0,15.6586741,4.2043375,15.6586741,18.6464021ZM1011.0237831,252.5557402h-4.6512552v18.2822469h5.6692346c5.7602734,0,10.0225446-3.3187782,10.0225446-8.9466315,0-7.3244855-5.5699195-9.3356154-11.0405239-9.3356154ZM1006.3725279,238.9909586l3.5174083.0082763c4.4029676,0,9.7908095-1.0428081,9.7908095-8.2928073,0-7.3906956-5.9671797-8.2679786-9.7494282-8.2679786h-3.5587896v16.5525096Z"/>
    <path d="M1087.2067087,286.0083622l-15.8076467-31.1766519h-3.509132v31.1766519h-16.8007973v-78.6658021l23.3721436.0496575c18.902966,0,26.7654081,11.7853869,26.7654081,24.7046207,0,9.6832181-5.8099309,17.5953178-14.5331035,20.9720297l19.3167788,32.9394942h-18.803651ZM1067.88993,241.3165862h5.8761409c7.4900106,0,10.6598162-4.4609014,10.6598162-9.2114716,0-6.5216888-4.8912666-9.6087319-10.4115286-9.6087319h-6.1244286v18.8202035Z"/>
    <path d="M1192.2903162,246.572008c0,22.6355569-16.8256261,40.9922901-39.6680894,40.9922901-23.2397235,0-39.6763656-18.3567332-39.6763656-40.9922901,0-22.6438332,16.4366421-40.9922901,39.6763656-40.9922901,23.2314473,0,39.6680894,18.3484569,39.6680894,40.9922901ZM1175.0426012,246.572008c0-14.4255122-9.1949191-24.5970293-22.4203743-24.5970293s-22.4286506,10.1715172-22.4286506,24.5970293,9.2031954,24.5887531,22.4286506,24.5887531c13.217179,0,22.4203743-10.1632409,22.4203743-24.5887531Z"/>
    <path d="M1238.1242154,271.938729h-19.0767674l-2.8966892,14.0696332h-17.5953178l20.8230571-78.6658021h18.7208884l20.8313334,78.6658021h-18.0091305l-2.7973741-14.0696332ZM1235.186145,257.2152717l-6.4472025-32.3684326-6.6623851,32.3684326h13.1095876Z"/>
    <path d="M1324.1476081,246.7789144c0,26.5088442-18.5719158,39.1632378-38.1121535,39.1632378l-17.5953178.0248288v-78.6740784h17.5953178v.0248288c19.714039,0,38.1121535,13.1426927,38.1121535,39.461183ZM1307.3633633,246.5968368c0-19.4160938-11.5867568-24.1501116-19.5981714-24.1501116h-2.5242577v48.3664332h2.5242577c7.2003417,0,19.5981714-3.8484585,19.5981714-24.2163216Z"/>
    <path d="M1377.8522256,258.5063675h17.1980575c0,7.3906956-6.8279102,29.0827595-30.4235127,29.0827595-23.3390386,0-31.6152934-22.3624405-31.6152934-40.5039911,0-.1572488,0-.3227739.0082763-.488299-.0082763-.1655251-.0082763-.3310502-.0082763-.4965753,0-18.1332743,8.2762548-40.5039911,31.6152934-40.5039911,23.5956025,0,30.4235127,21.7003401,30.4235127,29.0910357h-17.1980575s-.7365867-12.2736859-13.1509689-12.2736859c-8.64041,0-14.9055349,7.3493143-14.9055349,23.4218012v1.5145546c0,16.0724869,6.2651249,23.4218012,14.9055349,23.4218012,12.4143822,0,13.1509689-12.2654096,13.1509689-12.2654096Z"/>
    <path d="M1440.8841824,271.938729h-19.0767674l-2.8966892,14.0696332h-17.5953178l20.8230571-78.6658021h18.7208884l20.8313334,78.6658021h-18.0091305l-2.7973741-14.0696332ZM1437.9461119,257.2152717l-6.4472025-32.3684326-6.6623851,32.3684326h13.1095876Z"/>
    <path d="M1513.135887,264.9452937c0,13.1675214-9.5011405,22.6438332-22.701767,22.6438332-18.3070757,0-23.0824747-18.6132971-23.0824747-18.6132971l14.648971-6.0582185s2.1849313,8.3176361,8.4997137,8.3176361c4.0967461,0,5.8264834-3.798801,5.8264834-6.3809925,0-12.050227-26.666093-19.0767674-26.666093-38.4680324,0-12.4309347,9.8652958-20.7982284,21.8162077-20.7982284,13.0351013,0,19.0436624,10.0225446,22.0644954,16.6187197l-13.6972017,6.2402961c-.6455479-1.365582-3.0787668-5.6609583-7.663812-5.6609583-3.8401822,0-5.619577,2.0938925-5.619577,4.8498853,0,8.8969739,26.5750542,16.7345873,26.5750542,37.3093567Z"/>
    <path d="M1562.3216694,207.3425601v14.7648386h-12.5633548v63.8926872h-16.8007973v-63.8926872h-12.5633548v-14.7648386h41.9275069Z"/>
    <path d="M1572.0710976,286.0083622v-78.6658021h16.8918361v78.6658021h-16.8918361Z"/>
    <path d="M1657.1178922,207.2929026v78.6989071h-14.7896674l-21.7996552-46.6532484v46.6532484h-16.792521v-78.6989071h14.7896674l21.791379,47.3732826v-47.3732826h16.8007973Z"/>
    <path d="M1729.5020169,238.3702395v14.615866c0,18.0753405-11.0239714,34.6030214-29.8027936,34.6030214-22.246573,0-30.2579876-20.2106143-30.2579876-40.6860687,0-29.7779649,14.4255122-41.3067878,30.0345288-41.3067878,19.2340162,0,26.0039927,15.6090166,26.0039927,23.4714587h-16.792521s-1.4483446-8.3176361-9.451483-8.3176361c-8.963184,0-12.9937201,10.0142683-12.9937201,26.2936616,0,13.7303068,3.831906,25.4163786,13.5316766,25.4163786,12.5136973,0,13.3247703-13.1261402,13.3247703-19.3085025h-14.3344734v-14.7813911h30.7380104Z"/>
    <path d="M1738.5314109,286.0083622v-15.9897243h15.5924641v15.9897243h-15.5924641Z"/>
    <path d="M1807.8036638,258.5063675h17.1980575c0,7.3906956-6.8279102,29.0827595-30.4235127,29.0827595-23.3390386,0-31.6152934-22.3624405-31.6152934-40.5039911,0-.1572488,0-.3227739.0082763-.488299-.0082763-.1655251-.0082763-.3310502-.0082763-.4965753,0-18.1332743,8.2762548-40.5039911,31.6152934-40.5039911,23.5956025,0,30.4235127,21.7003401,30.4235127,29.0910357h-17.1980575s-.7365867-12.2736859-13.1509689-12.2736859c-8.64041,0-14.9055349,7.3493143-14.9055349,23.4218012v1.5145546c0,16.0724869,6.2651249,23.4218012,14.9055349,23.4218012,12.4143822,0,13.1509689-12.2654096,13.1509689-12.2654096Z"/>
    <path d="M1912.7548512,246.572008c0,22.6355569-16.8256261,40.9922901-39.6680894,40.9922901-23.2397235,0-39.6763656-18.3567332-39.6763656-40.9922901,0-22.6438332,16.4366421-40.9922901,39.6763656-40.9922901,23.2314473,0,39.6680894,18.3484569,39.6680894,40.9922901ZM1895.5071361,246.572008c0-14.4255122-9.1949191-24.5970293-22.4203743-24.5970293s-22.4286506,10.1715172-22.4286506,24.5970293,9.2031954,24.5887531,22.4286506,24.5887531c13.217179,0,22.4203743-10.1632409,22.4203743-24.5887531Z"/>
  </g>
  <g>
    <path d="M228.1565217,233.4651935c1.4406932.0793272,2.8695305.0665065,4.2961141-.2429788,10.0968536-2.1904274,72.5476913-65.5371494,79.2027114-77.0285063,4.3489331-7.5093902,8.5678925-25.7272179,17.3128614-28.031524,7.8242901-2.0617066,26.6680404,4.7312803,35.0882587,7.3121864,9.5021499,2.9125321,31.1950333,12.8561959,39.0807872,13.3906484,14.4822134.9815238,19.8379611-22.7952255,33.1223-13.990032,12.7492762,8.4505405-9.3797367,36.4511425-3.7778547,48.2886757,3.519606.7763489,10.0092539-6.1357663,12.5114259-8.610974,9.4296408-9.3280237,25.7869688-33.9962623,34.764226-39.8197887,8.2937505-5.3801372,18.2719113-1.1738121,17.5794927,9.4246114-.7794443,11.9304734-12.1865033,34.5790638-15.1912359,48.3701943-.5912071,2.7135239-3.9163311,11.3288578.6602984,11.7875651,2.4510351-.0582648,4.1876006-1.7744078,5.9952614-3.1237814,22.4136212-16.7312085,40.5976969-39.4250695,65.7670312-56.1968547,10.2958869-6.8607457,39.1464841-26.3028073,36.5056538,1.2140687-2.0276681,21.1278599-16.2320445,52.3127243-20.5902638,75.1306925-.63995,3.3505331-3.1079771,11.1179954,1.0454214,12.2309539,5.1084931.2869747,20.106501-13.6928793,24.7144805-17.7268776,15.016205-13.1457497,46.9203107-43.1106867,56.6529737-59.2567079,10.0118041-16.6091031,5.547646-32.4873562,31.0675096-27.393769,20.611198,4.1138517,40.8232516,13.9555925,61.0073078,19.6632826,10.2423755.0290485,17.297752-17.2429433,27.9699651-15.9532522,5.0545197.610817,9.2521733,6.1104627,8.7771991,11.2604278-6.0536524,25.470259-17.6216823,51.5190306-22.8280593,77.0080554-3.4235974,16.7610143,1.4543895,14.4915888,12.2715757,6.2140517,10.0750175-7.7096141,42.3060875-37.3537609,47.3263572-47.4182321,15.9083446-41.6929528,25.5899323-87.9038387,42.2068983-129.0963886,4.7777664-11.8438216,6.7659072-17.5769717,20.9456723-11.3635967,23.5270074,10.309206,17.9438959,22.4360154,10.5285016,41.7989393-18.2605629,47.6816038-46.5187938,90.7218376-52.6489879,142.8421462-.3980275,3.3841203-.681497,7.0332651.1897821,10.3707194,3.196141,4.6888627,17.8195336-9.152352,20.7405887-11.6238262,21.1480733-17.8931636,39.4394282-39.3810364,59.1455435-58.782127l8.4652302-2.7971191c9.0889212,6.4764087,1.4184441,16.29049-3.5747844,22.7946271-20.6797433,26.9372577-81.3363644,85.8454521-111.572675,99.0891321-36.1479527,15.8330137-11.9478097-31.1149759-11.0803598-46.349653.3480328-6.112361-.758259-8.578454-6.8992657-4.8509941-7.9816224,4.8446743-19.6761463,17.9880841-27.8035822,24.6041219-9.6618523,7.8651104-36.1848627,28.904268-47.6614811,30.0306614-7.3159695.718039-10.4225101-4.4162202-10.2044002-11.1961554.6045998-18.7939535,14.0416081-43.6887383,15.6392309-62.1248861.1513721-1.7467944.4342791-3.9365539-1.2519212-5.1169775-5.2646275-1.1369364-20.8682948,15.738212-25.5582223,19.7362095-17.8852424,15.2465375-36.1648296,30.9973374-55.7566931,44.0333962-5.535888,3.6834762-26.8107682,20.1902744-29.7478077,7.1175992-2.6784144-11.921543,12.0686264-41.0858964,14.4513285-54.6355673,1.9032233-10.8230274-.8046483-9.7350561-8.0945154-4.0574048-19.7600259,15.3899288-35.9896085,34.9826285-57.6947349,50.1566401-11.454228,8.0076285-42.815741,31.3729123-39.5327388.8005592,2.8067863-26.1376809,20.3740761-57.5211137,23.8252055-82.9722362.3197351-2.357958.5974958-4.7862227.1125975-7.1409719-3.5998263-2.1768617-5.7378028-.3571229-8.8283237,1.4506941-16.8230921,9.8407594-68.3565159,61.5075661-75.1968256,79.0089691-2.4251089,6.204808-3.9195644,22.2536159-11.3350687,23.933027-6.1547371,1.3938814-17.446973-3.6282277-21.9602448-7.8473313-11.0524735-10.3320902.8683509-23.7993743,4.9990134-34.2795686,2.5958598-6.5861385,5.5794865-14.0819034,7.3113722-20.9035849,1.1542484-4.5464404,3.7246449-10.6174934,1.3175316-14.852756-2.9125998-2.1907112-18.7139616,14.1180977-21.2248655,17.1284389-10.4087995,12.4791865-17.108852,39.4547357-24.0009492,55.6090745-2.9547862,6.9257031-22.60621,45.4771621-21.8378255,48.8082301.2634784,1.1422206,1.0023347,2.3395005,2.1685172,2.7290031,5.5522384,1.8544363,49.9757427-8.8603393,59.6457142-10.5933069,36.1493094-6.4783625,87.9507332-17.2786394,123.7190785-17.5258163,2.3014666-.0159043,8.9565533,1.1312386,10.0932582,3.085192,3.169165,5.4476769-4.7976691,12.4020346-2.0983878,16.2066929l2.085594.9310278c50.6077426-5.9880936,101.1280398-14.7346047,152.2252688-16.1610752,8.9271905-.2492185,28.0290759-1.2388403,35.8805082.5472915,10.2651997,2.3352427.1791394,15.0546624,7.532414,16.6287049,2.5685325.5498203,9.048819.126933,12.0849544-.014913,28.7505868-1.3432061,58.7824428-7.8261895,87.724748-5.0005654,3.2605695.3183279,7.593471.7691186,9.5810836,3.5036183.0008253,1.5239775-10.9135684,4.6967367-12.8803414,5.2441856-31.4179454,8.7451471-68.7008127,13.0690749-101.2412789,19.7499968-16.7003419,3.4287671-52.4685107,14.7330106-66.877218,14.8742623-22.9810343.2252882,13.207285-26.1759101,16.1609214-30.2786199,7.3541456-10.215179-5.519696-7.5618503-11.9674873-6.9201292-49.6375927,4.9402172-108.8998169,20.546915-156.9561104,34.6100816-11.6438742,3.4074567-40.1775596,15.2972323-49.9009753,15.6703518-2.1460621.0823515-5.2399896.3346375-6.6719578-1.4690372-6.0896971-11.4190003,22.07786-31.4884562,19.1494067-40.253008-1.4397516-4.3090248-21.0667715.8227043-25.2933613,1.6793069-39.2235573,7.9494348-90.2302385,23.1156472-127.3933926,37.9504026-22.4752408,8.971647-34.5196674,27.8096804-51.9049465,43.8516243-8.715225,8.0418122-19.4175121,17.4560673-28.7806525,24.6412578-5.8309802,4.4746422-11.7271108,10.7682965-19.9278523,8.8768777-7.6358588-1.7611343-29.5618808-37.0545569-34.4131356-45.2014704-15.5313352-26.0824154-21.2476372-29.2910593,11.516568-39.7019005,32.5053218-10.3285808,67.6213511-12.8976667,98.8359243-22.1529507,16.9332746-5.0208044,28.3209894-37.8513986,34.2871397-53.3924989,8.3322677-21.7045504,18.9524533-51.5809521,23.6813785-74.0626629,2.4703429-11.7442193,1.6626437-15.7917024-9.0428361-7.0182614-26.5312018,21.7430643-49.8013472,46.0529465-79.2871421,64.8529396-9.5875306,6.1129608-26.5493517,18.0215934-25.1470074-2.969319.7596981-11.3714981,16.9910126-47.9664632,15.0353214-54.1914633-2.4041354-4.3157997-10.261582,3.5320002-13.0015988,5.8628444-22.2610299,18.9367423-42.1762572,42.1019205-68.5421364,56.4461785-32.4790512,17.6701064-24.3140282-6.884379-18.8899315-27.9378458,4.2591948-16.5319351,14.5929218-40.4118498,16.5872148-55.9546675.4726563-3.6837172,1.6084502-8.4077781-3.2418281-8.379922-3.9859733.0228923-26.3083311,12.7050413-32.1139392,15.3622107-8.9585086,4.1002206-22.9397687,8.2592618-30.6266953,12.7228046-7.739774,4.4942295-5.8030554,8.0129177-2.1402537,14.6230142,7.7667204,14.0162572,31.5734314,28.4912794,16.9477567,44.4961861-11.1623343,12.214966-63.4185032,42.8330072-79.158444,42.6233696-10.4883959-.1396931-25.3401753-19.5683228-31.7088494-27.5457548-7.1987481-9.0171866-32.9541558-44.7208664-33.3743568-54.3980281-.109092-2.5123708.3134342-4.8523117,2.0260935-6.7639373,4.3944376-4.9049567,48.0459117-9.1374342,58.7530386-13.1167821,8.7580397-3.2549616,8.7860473-5.9570615,5.3478812-13.8505803-13.0508939-29.9629141-29.9503529-55.7564114-40.8845563-88.1044994-5.2049993-15.3986321-14.1284919-31.465633,2.3449576-42.0195878C71.2121451,48.7833665,172.2775065,10.5828422,214.5862181,9.7990078c11.8169012-.2189264,14.8402127,4.0745495,13.3065149,15.3684164-3.7557726,27.6568136-18.2896442,22.5044267-39.5602763,24.9525915-28.6117591,3.2930992-95.5827599,11.8787783-119.0273511,26.1597297-11.5591554,7.0411011-.9745915,26.4798,2.7997296,36.5402834,8.5128752,22.6911375,24.1667423,58.5608998,37.6442089,78.2465023,4.0691578,5.9435371,6.6122603,10.1269316,14.5834865,8.6984181,18.4549377-3.3072863,73.1551475-30.7484846,88.1691176-42.8915385,5.6776044-4.5919537,18.6656499-21.6444065,22.9704465-23.3925326,8.3054259-3.3727337,16.5479947,1.3554185,15.6611745,10.5298883-5.7076606,19.9938465-12.8300851,39.615278-17.8555692,59.8108444-2.4236149,9.7396141-5.8727904,19.4823802-5.1211782,29.6435827ZM319.1638181,229.1839045c.9139662.9473171,2.5227612,1.1114592,3.794894.8144002,5.5100176-1.2866584,33.1329547-26.2557075,38.8400247-31.7706008,4.6312978-4.4753461,17.7877359-14.4073731,12.034937-21.1479782-2.8216105-3.3061059-35.5684873-15.5144985-40.314854-15.2332653-8.8854355.5264826-11.1134873,24.8668696-12.2720892,32.1367797-.9625581,6.0397891-5.4069439,31.7553382-2.0829124,35.2006645ZM672.5853393,162.1435881c-1.2842497.3783933-3.4478274,2.7149844-4.1661106,3.9059771-3.7192248,6.1668847-9.7728215,47.3934831-9.7565781,55.8208424.0142377,7.3867658,1.6711817,10.6675197,9.0566943,6.9435131,7.4320021-3.7474481,39.8354102-33.0335545,45.5118808-40.1604399,5.7010297-7.1577197,5.8636363-9.8119224-2.6655521-14.5086047-5.6304603-3.1004689-25.4750819-10.6711284-31.5910468-11.7493073-2.2046718-.3886599-4.1089524-.9238622-6.3892876-.2519808ZM80.676344,232.7166571c-6.8030285.7461493-27.2143365,4.1183287-25.5616947,12.8672997,1.0927027,5.7846927,22.7857621,35.1401116,27.8401247,39.7471599,9.5578323,8.7119581,21.1182378,2.7676464,29.7062496-4.5516678,6.6059654-5.6300734,6.5685258-8.2018832,2.3677911-15.4008606-3.4511545-5.9143901-15.3942477-22.5099637-19.9637913-27.4052985-5.136435-5.5026434-6.6251698-6.1081266-14.3886793-5.2566327ZM294.6146733,386.6915867c-2.0966969-.9555657-3.9929093-1.1576285-6.2955403-1.0342041-5.3803594.2883953-29.8313159,6.7206476-32.9521347,10.4780713-.8040042.9680102-1.4979412,2.0212656-1.8188556,3.2595421,5.5054946,17.2874602,12.8925835,18.0115025,26.0501649,6.8508762,3.1456399-2.6682192,17.4292122-15.7571851,15.0163658-19.5542855Z"/>
    <path d="M250.0794396,64.4558986c41.1824062-7.0156721,44.0953504,52.8829878,6.6625558,54.0802636-32.5143002,1.0399593-37.6354458-48.8038443-6.6625558-54.0802636Z"/>
  </g>
</svg>