<?xml version="1.0" encoding="UTF-8"?>
<svg id="Layer_1" xmlns="http://www.w3.org/2000/svg" version="1.1" xmlns:xlink="http://www.w3.org/1999/xlink" viewBox="0 0 1080 1080">
  <!-- Generator: Adobe Illustrator 30.4.0, SVG Export Plug-In . SVG Version: 2.1.4 Build 226)  -->
  <defs>
    <clipPath id="clippath">
      <path d="M185.7046996,813.9876615l252.9854327-164.6111095-38.6987813,29.220907s59.4158442-137.3382629,146.104535-160.7149885c86.6886908-23.3767256,135.3902025-58.441814,263.9621933-19.4806047,128.5719908,38.9612093,86.6886908,214.2866514,27.2728465,291.2350398-59.4158442,76.9483885-278.9147047,194.2146416-525.3443538,89.9934066l-126.2818724-65.6426508Z" fill="none"/>
    </clipPath>
    <clipPath id="clippath-1">
      <path d="M894.2953004,263.358709l-252.9854327,164.6111095,38.6987813-29.220907s-59.4158442,137.3382629-146.104535,160.7149885c-86.6886908,23.3767256-135.3902025,58.441814-263.9621933,19.4806047-128.5719908-38.9612093-86.6886908-214.2866514-27.2728465-291.2350398,59.4158442-76.9483885,271.7544352-190.9099258,518.1840843-86.6886908l133.442142,62.3379349Z" fill="none"/>
    </clipPath>
  </defs>
  <g clip-path="url(#clippath)">
    <g>
      <path d="M282.4260254,649.8238525c128.8174799,76.7069848,289.8672525,148.2524951,441.3491955,105.661642,49.784675-14.2785523,103.1682134-43.7667849,115.7511246-97.6631116,9.2594036-39.5580012-6.7075505-86.5946433-40.4648612-109.9753174-65.0130519-43.9487223-150.5210753-32.0652799-219.6811035-3.9087815-20.6162207,8.2968844-40.6777442,18.1364229-60.2047827,29.0051363,0,0-7.5703735-13.2748413-7.5703735-13.2748413,59.6873915-34.480394,127.0250126-61.223756,197.1904797-58.7325211,40.2721605,1.5206573,85.3880044,14.7574282,115.5145798,42.7734519,39.5991237,38.8891726,50.1284467,104.909613,21.1141466,152.8812646-18.4233345,31.5283955-49.7155396,53.1294539-82.6633588,67.1809617-119.8376194,50.514973-255.9758304,19.2483512-369.8649957-32.4392993-41.6452463-18.8727516-81.7777347-40.901358-120.5815186-64.9607639.0000176-.00003,10.1114678-16.5478205,10.1114678-16.5478205h0Z"/>
      <path d="M250.5506592,697.3670044c126.8452361,77.4315664,285.2027107,139.0264608,434.2316533,98.4621525,54.7589862-15.2686913,106.8614244-47.2490785,137.7340947-95.7964076,17.8616844-27.9817816,28.8150831-62.0176725,24.6364944-95.2737739-4.9585212-36.8378125-24.9672256-57.39401-58.3311649-71.2966444-65.3428242-26.8279115-140.5061938-15.4928816-205.1129411,9.1236617-22.2120508,8.4824705-43.7281445,18.8006519-64.5331972,30.3574253-.0000002.0000025-7.5703738-13.2748388-7.5703738-13.2748388,21.2139712-12.3369516,43.1904987-23.4108257,65.97473-32.6301942,68.6866023-27.7186638,148.1688592-40.6277665,219.2263547-13.0036246,12.0268122,4.8429054,23.7668561,10.9025491,34.2308381,18.6625608,33.1694576,24.5211569,44.7845941,68.9240588,39.2490807,108.2318393-7.7806895,58.1856012-44.8898755,108.523593-91.9713804,141.5804101-36.230562,25.6180863-78.7136241,41.6623357-122.0036842,50.1448056-148.6170336,27.0286464-298.8393972-28.6022196-425.6873591-102.6753501.00028-.001487,19.9268547-32.6120216,19.9268547-32.6120216h0Z"/>
      <path d="M208.7592773,759.5779419c105.657174,61.7502874,235.809428,102.8625698,358.89502,94.4836463,92.991379-6.8130443,189.0873396-49.1893739,242.1803667-127.9445246,21.264138-32.0808426,34.8576402-70.8979115,32.1686996-109.4800467-1.6697203-24.5509978-11.0249283-50.2660226-31.4963724-63.9197235-55.4791667-35.9907182-127.1994782-33.7171814-189.1068429-16.1075437-64.675027,19.1340456-130.9050762,56.6144579-177.5227038,105.9278752-9.6928393,10.3293845-18.930754,21.3703336-26.8389642,33.2029504.0000328.0000255-3.643644-1.2749989-3.643644-1.2749989,5.7694364-29.6650293,23.3144837-56.7890503,43.2135784-79.104322,10.2258494-11.2845176,21.6388193-21.630153,33.8038553-30.7882213,4.1998074-3.1938112,9.6055061-7.0356759,14.0072711-9.8997074,83.8730035-54.4510788,191.7380292-88.4656153,290.1334244-54.6915792,23.7265243,8.56667,47.8747386,21.0741756,63.5159824,41.4275427,46.3481973,61.5907782,28.9012136,149.1959599-9.8061894,209.6080713-42.4845312,66.5951614-111.868359,111.487641-185.841926,135.2227984-132.1059402,40.8084121-275.6862762,12.2386588-399.5375685-42.1760064-27.5328828-12.3404348-54.2962741-26.1625787-80.0201824-42.1061023.0000164-.0000422,25.8961956-42.3801081,25.8961956-42.3801081h0Z"/>
    </g>
  </g>
  <g clip-path="url(#clippath-1)">
    <g>
      <path d="M797.5739746,427.522522c-128.8173366-76.7069704-289.8673838-148.2524857-441.3491345-105.6616726-49.7848052,14.2785925-103.1681811,43.7667637-115.7512467,97.6631422-9.2593273,39.5578815,6.7076535,86.5948348,40.4649831,109.9753174,65.0129591,43.9488104,150.5210803,32.0651733,219.6810425,3.9087814,20.6162207-8.2969454,40.6777442-18.1364229,60.2047828-29.0051058l7.5703735,13.2748108c-59.6874118,34.4804035-127.0250012,61.223726-197.1904797,58.7325211-40.272349-1.520694-85.3878114-14.7574312-115.5146408-42.773452-39.5990472-38.8893054-50.1283769-104.9095634-21.1140854-152.8812951,18.4233584-31.5283908,49.7155958-53.1294376,82.6634196-67.1809313,119.8375601-50.5150737,255.9758322-19.2482525,369.8649957,32.4392688,41.6451195,18.872732,81.7777258,40.9014108,120.5814575,64.9607641-.0000175.0000299-10.1114677,16.547851-10.1114677,16.547851h0Z"/>
      <path d="M829.4493408,379.9794006c-126.8453605-77.4316986-285.2026575-139.0264583-434.2317143-98.462183-54.7588911,15.2686588-106.8614064,47.2491248-137.7340337,95.7964076-17.8617469,27.981766-28.8150297,62.0176621-24.6364943,95.2737739,4.9583287,36.8376584,24.9674833,57.3941665,58.3311648,71.2966444,65.3428339,26.8279181,140.5062848,15.492879,205.1129411-9.1236616,22.2120446-8.4824447,43.7281373-18.8007006,64.5331972-30.3573948.0000003-.0000024,7.5703738,13.2748084,7.5703738,13.2748084-21.213973,12.3368925-43.1904978,23.4108564-65.97473,32.6301941-68.6866997,27.7186809-148.1687824,40.6278005-219.2264157,13.0036246-12.0266649-4.842943-23.7668712-10.90257-34.2307771-18.6625608-33.1693748-24.5211364-44.7846612-68.9241026-39.2490809-108.2318392,7.7806465-58.1855429,44.8899897-108.5236896,91.9714414-141.5804103,36.2305107-25.6181541,78.7135173-41.6622628,122.0036233-50.1448055,148.6169865-27.0286019,298.839391,28.6021379,425.6872981,102.6753502-.00028.0014869-19.9267936,32.6120521-19.9267936,32.6120521h0Z"/>
      <path d="M871.2407227,317.7684021c-105.6503782-61.7702516-235.8079256-102.8975786-358.8986209-94.5280649-93.0098041,6.806036-189.1237525,49.1854581-242.2311479,127.9537568-21.2739898,32.0922028-34.8728893,70.9232006-32.1843251,109.5212755,1.6701617,24.5712399,11.0351709,50.3074042,31.5261582,63.9747465,55.4960326,36.0053351,127.2425102,33.7356945,189.1695255,16.1199951,64.6839204-19.1386372,130.9460456-56.6168313,177.5338727-105.976734,9.6846609-10.3361349,18.9136669-21.3861361,26.8052739-33.2275775-.0000333-.0000258,3.6436435,1.2750292,3.6436435,1.2750292-5.8034811,29.6510057-23.3554994,56.7534463-43.2587452,79.0572334-10.227116,11.2781971-21.6395918,21.6185552-33.8025119,30.7731455-4.1991808,3.1926332-9.6039292,7.0330878-14.0047076,9.8964115-83.8541156,54.4384414-191.6930053,88.4505862-290.0664688,54.6873379-23.7144362-8.5619529-47.8501338-21.0595204-63.4844275-41.4020608-46.3296575-61.5666747-28.8860794-149.1373284,9.803442-209.5286342,42.4728818-66.5845915,111.8440127-111.4725283,185.8028035-135.2087604,132.0944537-40.8147013,275.6667217-12.2565876,399.5169997,42.1385143,27.5342248,12.3366173,54.2992222,26.1550055,80.0254923,42.0943087-.0000162.0000419-25.8962565,42.3800773-25.8962565,42.3800773h0Z"/>
    </g>
  </g>
</svg>